<svg class="origin-center rotate-180" xmlns="http://www.w3.org/2000/svg" xmlns:xlink="http://www.w3.org/1999/xlink" width="1366" zoomAndPan="magnify" viewBox="0 0 1024.5 576" height="768" preserveAspectRatio="xMidYMid meet" version="1.2"><defs><clipPath id="dba366b6ba"><path d="M 309 178 L 715 178 L 715 399.519531 L 309 399.519531 Z M 309 178 "/></clipPath></defs><g id="d37aa13917"><g clip-rule="nonzero" clip-path="url(#dba366b6ba)"><path style=" stroke:none;fill-rule:nonzero;fill:#1a1a1a;fill-opacity:1;" d="M 708.964844 183.589844 C 701.53125 176.152344 689.460938 176.152344 682.023438 183.589844 L 511.867188 353.601562 L 341.707031 183.589844 C 334.273438 176.152344 322.199219 176.152344 314.765625 183.589844 C 307.324219 191.019531 307.324219 203.074219 314.765625 210.507812 L 498.394531 393.972656 C 502.113281 397.691406 506.992188 399.550781 511.867188 399.550781 C 516.742188 399.550781 521.617188 397.691406 525.335938 393.972656 L 708.964844 210.507812 C 716.40625 203.074219 716.40625 191.019531 708.964844 183.589844 "/><path style=" stroke:none;fill-rule:nonzero;fill:#1a1a1a;fill-opacity:1;" d="M 708.964844 183.589844 C 701.53125 176.152344 689.460938 176.152344 682.023438 183.589844 L 511.867188 353.601562 L 341.707031 183.589844 C 334.273438 176.152344 322.199219 176.152344 314.765625 183.589844 C 307.324219 191.019531 307.324219 203.074219 314.765625 210.507812 L 498.394531 393.972656 C 502.113281 397.691406 506.992188 399.550781 511.867188 399.550781 C 516.742188 399.550781 521.617188 397.691406 525.335938 393.972656 L 708.964844 210.507812 C 716.40625 203.074219 716.40625 191.019531 708.964844 183.589844 "/></g></g></svg>